<svg id="Capa_1" data-name="Capa 1" xmlns="http://www.w3.org/2000/svg" viewBox="0 0 283.5 283.5"><path d="M0,206.7c7.29,7.64,14.59,15.27,22,23l30.62-30.89L85,231.26,54.2,261.92A36.49,36.49,0,0,1,58.52,265c5.39,5.27,10.71,10.63,16,16a15.13,15.13,0,0,1,1.64,2.47H0Z"/><path d="M207.55,283.5a19,19,0,0,1,1.87-2.69c6.33-6.35,12.71-12.65,19.25-19.15l-30.21-29.94,32.28-32.23q14.64,14.65,29.9,29.93l22.86-22.5V283.5Z"/><path d="M283.5,76.84l-22-23L230.92,84.65,198.46,52.22c9.85-9.76,19.89-19.7,30.87-30.6A37.79,37.79,0,0,1,225,18.48c-5.4-5.28-10.71-10.63-16-16A15.18,15.18,0,0,1,207.29,0H283.5Z"/><path d="M75.93,0a19,19,0,0,1-1.87,2.69C67.74,9.05,61.38,15.36,54.9,21.82L85,51.74,52.76,84.05l-29.89-30L0,76.55V0Z"/><path d="M208,90.33c-21.51,12.42-42.52,24.6-63.62,36.61a6,6,0,0,1-5,0C118.22,115,97.21,102.8,75.74,90.4a25.36,25.36,0,0,1,2.81-2.23c20-11.56,40-23.13,60.05-34.51a7,7,0,0,1,5.85-.28C165.14,65.09,185.7,77,206.29,88.93A16.29,16.29,0,0,1,208,90.33Z"/><path d="M219.38,110.71c.12,1.66.3,3,.3,4.3,0,22.55.08,45.1-.11,67.65,0,2-1.27,4.8-2.84,5.72-20.14,11.9-40.44,23.53-60.71,35.22-.68.39-1.44.66-2.83,1.28V210.51c0-19.28-.08-38.56.12-57.84,0-2,1.21-4.82,2.75-5.73,20.29-12,40.74-23.7,61.17-35.46A13.3,13.3,0,0,1,219.38,110.71Z"/><path d="M130.31,225.18c-8.25-4.74-15.66-9-23-13.26C94,204.27,80.7,196.68,67.54,188.86c-1.62-1-3.56-3.15-3.57-4.8-.23-24.25-.16-48.51-.16-73.26a16.92,16.92,0,0,1,3,1c20.13,11.59,40.26,23.16,60.29,34.91,1.46.85,3,3,3,4.55C130.37,175.49,130.31,199.76,130.31,225.18Z"/></svg>