<?xml version="1.0" encoding="utf-8"?>
<!-- Generator: Adobe Illustrator 26.2.1, SVG Export Plug-In . SVG Version: 6.00 Build 0)  -->
<svg version="1.1" id="Capa_1" xmlns="http://www.w3.org/2000/svg" xmlns:xlink="http://www.w3.org/1999/xlink" x="0px" y="0px"
	 viewBox="0 0 23.1 23" style="enable-background:new 0 0 23.1 23;" xml:space="preserve">
<path d="M21.4,21.3c0-4.1,0-8,0-12.1c0.6,0,1-0.1,1.5-0.1c0,0.4,0.1,0.8,0.1,1.2c0,3.5,0,7,0,10.5c0,1.5-0.7,2.3-2.2,2.3
	c-6.2,0-12.4,0-18.6,0C0.8,23,0,22.4,0,21C0,14.7,0,8.4,0,2.1C0,0.8,0.7,0,2,0c3.9,0,7.7,0,11.7,0c0,0.5,0.1,0.9,0.1,1.6
	c-2.8,0-5.6,0-8.3,0c-1.3,0-3-0.4-3.6,0.3C1.3,2.5,1.6,4.2,1.6,5.5c0,4.8,0,9.6,0,14.4c0,1.1,0.2,1.6,1.5,1.6c5.6-0.1,11.3,0,16.9,0
	C20.4,21.4,20.8,21.4,21.4,21.3z M12.3,14.8c3.2-3.2,6.5-6.5,9.7-9.7c-1.4-1.4-2.8-2.8-4.2-4.2c-3.2,3.2-6.5,6.5-9.7,9.7
	C9.6,12.1,11,13.5,12.3,14.8z M11.5,15.7c-1.4-1.5-2.7-2.8-4.2-4.3c-0.3,1.8-0.7,3.5-1.1,5.4C8.2,16.4,9.8,16.1,11.5,15.7z"/>
</svg>
